<svg xmlns="http://www.w3.org/2000/svg" viewBox="0 0 512 512">
  <rect width="512" height="512" rx="80" fill="#007B8A"/>
  <rect x="100" y="80" width="312" height="352" rx="18" fill="white" opacity="0.15"/>
  <rect x="116" y="96" width="280" height="320" rx="14" fill="white"/>
  <rect x="116" y="96" width="280" height="42" rx="14" fill="#003F7D"/>
  <rect x="116" y="124" width="280" height="14" fill="#003F7D"/>
  <text x="256" y="129" font-family="Arial" font-size="18" font-weight="bold" fill="white" text-anchor="middle">SIEA</text>
  <rect x="136" y="158" width="240" height="8" rx="4" fill="#E8EFF7"/>
  <rect x="136" y="174" width="180" height="8" rx="4" fill="#E8EFF7"/>
  <rect x="136" y="190" width="200" height="8" rx="4" fill="#E8EFF7"/>
  <rect x="136" y="218" width="240" height="32" rx="6" fill="#FF6B35" opacity="0.8"/>
  <rect x="146" y="226" width="160" height="6" rx="3" fill="white" opacity="0.6"/>
  <rect x="146" y="236" width="120" height="6" rx="3" fill="white" opacity="0.4"/>
  <rect x="136" y="262" width="240" height="32" rx="6" fill="#7B4FA6" opacity="0.8"/>
  <rect x="146" y="270" width="140" height="6" rx="3" fill="white" opacity="0.6"/>
  <rect x="146" y="280" width="100" height="6" rx="3" fill="white" opacity="0.4"/>
  <rect x="136" y="306" width="240" height="32" rx="6" fill="#1A7A4A" opacity="0.8"/>
  <rect x="146" y="314" width="130" height="6" rx="3" fill="white" opacity="0.6"/>
  <rect x="146" y="324" width="90" height="6" rx="3" fill="white" opacity="0.4"/>
  <circle cx="390" cy="390" r="90" fill="#E8500A"/>
  <text x="390" y="408" font-family="Arial" font-size="72" font-weight="bold" fill="white" text-anchor="middle">✓</text>
</svg>